<svg xmlns="http://www.w3.org/2000/svg" xmlns:svg="http://www.w3.org/2000/svg" xmlns:xlink="http://www.w3.org/1999/xlink" width="200" height="200" version="1.1" viewBox="0 0 150 150"><g id="surface196"><path style="fill:none;stroke-width:8;stroke-linecap:round;stroke-linejoin:miter;stroke:#ffe;stroke-opacity:1;stroke-miterlimit:10" d="M 30 78 L 130 38"/><path style="fill:none;stroke-width:8;stroke-linecap:round;stroke-linejoin:miter;stroke:#ffe;stroke-opacity:1;stroke-miterlimit:10" d="M 14 130 L 130 14"/><path style="stroke:none;fill-rule:nonzero;fill:#cb3c33;fill-opacity:1" d="M 93 114 C 93 123.390625 85.390625 131 76 131 C 66.609375 131 59 123.390625 59 114 C 59 104.609375 66.609375 97 76 97 C 85.390625 97 93 104.609375 93 114"/><path style="stroke:none;fill-rule:nonzero;fill:#389826;fill-opacity:1" d="M 133 74 C 133 83.390625 125.390625 91 116 91 C 106.609375 91 99 83.390625 99 74 C 99 64.609375 106.609375 57 116 57 C 125.390625 57 133 64.609375 133 74"/><path style="stroke:none;fill-rule:nonzero;fill:#9558b2;fill-opacity:1" d="M 133 114 C 133 123.390625 125.390625 131 116 131 C 106.609375 131 99 123.390625 99 114 C 99 104.609375 106.609375 97 116 97 C 125.390625 97 133 104.609375 133 114"/></g><metadata id="metadata21"/></svg>